Coordinates
version=1
nRows=7
nColumns=46
inDegrees=yes

Units are S.I. units (second, meters, Newtons, ...)
Angles are in degrees.

endheader
time	pelvis_tilt	pelvis_list	pelvis_rotation	pelvis_tx	pelvis_ty	pelvis_tz	bb_angle	bb_tx	bb_ty	bb_tz	hip_flexion_r	hip_adduction_r	hip_rotation_r	knee_angle_r	knee_angle_r_beta	ankle_angle_r	subtalar_angle_r	mtp_angle_r	crank_angle_r	hip_flexion_l	hip_adduction_l	hip_rotation_l	knee_angle_l	knee_angle_l_beta	ankle_angle_l	subtalar_angle_l	mtp_angle_l	crank_angle_l	lumbar_extension	lumbar_bending	lumbar_rotation	arm_flex_r	arm_add_r	arm_rot_r	elbow_flex_r	pro_sup_r	wrist_flex_r	wrist_dev_r	arm_flex_l	arm_add_l	arm_rot_l	elbow_flex_l	pro_sup_l	wrist_flex_l	wrist_dev_l
      5.00500000	     -8.29002094	     -5.49518888	     -6.92343960	      0.10518193	      1.17399332	     -0.25329264	      0.00000000	      0.50000000	      0.00000000	      0.25000000	     88.96486830	     -3.04808490	     -0.58196675	    105.35953254	      1.83887074	      2.67833746	      3.94744000	      0.00000000	      0.00000000	     43.67564797	    -19.12275968	    -12.59198088	     53.07958998	      0.92641361	    -23.19145584	      3.72364695	      0.00000000	      0.00000000	    -64.39191874	      3.52367912	      5.08721098	     89.75659377	      0.72074525	     24.81199605	     40.82586377	     23.75734809	      0.00000000	      0.00000000	     89.71840751	     -8.81728630	     28.21174099	     33.62027311	     21.04575238	      0.00000000	      0.00000000
      5.01000000	     -8.48916158	     -5.26556544	     -6.97059217	      0.10448504	      1.17393446	     -0.25301002	      0.00000000	      0.50000000	      0.00000000	      0.25000000	     88.41850316	     -2.94088434	     -0.50622762	    103.77432113	      1.81120358	      4.22627282	      4.52858696	      0.00000000	      0.00000000	     44.64134039	    -19.19923763	    -12.37230142	     54.84214625	      0.95717602	    -24.28148575	      2.92877477	      0.00000000	      0.00000000	    -64.17948695	      3.42404333	      4.76531821	     89.75970840	      0.92813100	     24.80290046	     40.72157732	     23.59075058	      0.00000000	      0.00000000	     89.71937118	     -8.97846364	     28.10585778	     33.45396288	     20.95805959	      0.00000000	      0.00000000
      5.01500000	     -8.68643790	     -5.10781875	     -7.22487516	      0.10403650	      1.17384646	     -0.25247602	      0.00000000	      0.50000000	      0.00000000	      0.25000000	     87.64753560	     -2.59160778	     -0.50039679	    101.99032497	      1.78006698	      5.98505003	      5.01265338	      0.00000000	      0.00000000	     45.59350609	    -19.54429444	    -12.30468439	     56.71331123	      0.98983401	    -25.24501094	      2.17925673	      0.00000000	      0.00000000	    -64.04652408	      3.17719938	      4.63314156	     89.76019453	      1.10488997	     24.80793434	     40.77417175	     23.49320959	      0.00000000	      0.00000000	     89.71134282	     -9.17676840	     28.01571358	     33.46898387	     20.91893609	      0.00000000	      0.00000000
      5.02000000	     -8.78779846	     -4.89729128	     -7.21710790	      0.10342456	      1.17373783	     -0.25195150	      0.00000000	      0.50000000	      0.00000000	      0.25000000	     86.65890458	     -2.55958216	     -0.48868420	    100.09189154	      1.74693306	      7.77679646	      5.49766602	      0.00000000	      0.00000000	     46.55509520	    -19.66295769	    -12.09836547	     58.58134870	      1.02243742	    -26.26900449	      1.36813763	      0.00000000	      0.00000000	    -63.95627138	      3.05604730	      4.38369612	     89.75993492	      1.21365981	     24.79702533	     40.83128611	     23.39969260	      0.00000000	      0.00000000	     89.70946428	     -9.37256933	     27.92505027	     33.58459752	     20.90144377	      0.00000000	      0.00000000
      5.02500000	     -8.83642098	     -4.69488845	     -7.09686010	      0.10285982	      1.17355725	     -0.25143983	      0.00000000	      0.50000000	      0.00000000	      0.25000000	     85.47767871	     -2.61129270	     -0.49065571	     98.06184330	      1.71150204	      9.52004783	      6.09705812	      0.00000000	      0.00000000	     47.53514564	    -19.71161394	    -11.79099678	     60.49886273	      1.05590435	    -27.20220369	      0.52060975	      0.00000000	      0.00000000	    -63.92443896	      2.99198057	      4.07180963	     89.75932251	      1.33596561	     24.78435273	     40.88939187	     23.27824041	      0.00000000	      0.00000000	     89.70614418	     -9.55617364	     27.86024882	     33.76335373	     20.88935111	      0.00000000	      0.00000000
      5.03000000	     -8.86858163	     -4.37799725	     -6.99343583	      0.10229160	      1.17317725	     -0.25071908	      0.00000000	      0.50000000	      0.00000000	      0.25000000	     84.20511546	     -2.60504513	     -0.39454185	     95.91958901	      1.67411265	     11.29280085	      6.26897214	      0.00000000	      0.00000000	     48.49050512	    -19.70076224	    -11.57777332	     62.44831166	      1.08992865	    -27.94718562	     -0.14172631	      0.00000000	      0.00000000	    -63.84989942	      2.82259018	      3.72944920	     89.75740258	      1.36939004	     24.75891157	     40.92356739	     23.18900883	      0.00000000	      0.00000000	     89.70577187	     -9.69901456	     27.82510421	     33.92375041	     20.88698330	      0.00000000	      0.00000000
      5.03500000	     -8.80933619	     -3.94031035	     -6.83262369	      0.10193007	      1.17277630	     -0.24982795	      0.00000000	      0.50000000	      0.00000000	      0.25000000	     82.81505427	     -2.78821437	     -0.28655651	     93.71021155	      1.63555173	     12.63380099	      6.32675012	      0.00000000	      0.00000000	     49.34225833	    -19.60897457	    -11.46832126	     64.43241903	      1.12455786	    -28.43514890	     -0.50746395	      0.00000000	      0.00000000	    -63.82941998	      2.48633549	      3.20609229	     89.74774021	      1.29702763	     24.71266510	     40.92065195	     23.14153505	      0.00000000	      0.00000000	     89.71193838	     -9.68544586	     27.85012376	     34.02878041	     20.89265035	      0.00000000	      0.00000000
